<?xml version="1.0" encoding="UTF-8" standalone="no"?>
<svg
   xmlns:dc="http://purl.org/dc/elements/1.1/"
   xmlns:cc="http://creativecommons.org/ns#"
   xmlns:rdf="http://www.w3.org/1999/02/22-rdf-syntax-ns#"
   xmlns:svg="http://www.w3.org/2000/svg"
   xmlns="http://www.w3.org/2000/svg"
   xmlns:sodipodi="http://sodipodi.sourceforge.net/DTD/sodipodi-0.dtd"
   xmlns:inkscape="http://www.inkscape.org/namespaces/inkscape"
   inkscape:version="1.0 (4035a4fb49, 2020-05-01)"
   sodipodi:docname="map.svg"
   viewBox="0 0 1e3 700"
   version="1.1"
   height="700"
   width="1e3"
   id="svg8">
  <metadata
     id="metadata175">
    <rdf:RDF>
      <cc:Work
         rdf:about="">
        <dc:format>image/svg+xml</dc:format>
        <dc:type
           rdf:resource="http://purl.org/dc/dcmitype/StillImage" />
      </cc:Work>
    </rdf:RDF>
  </metadata>
  <defs
     id="defs173" />
  <sodipodi:namedview
     inkscape:current-layer="svg8"
     inkscape:window-maximized="0"
     inkscape:window-y="0"
     inkscape:window-x="422"
     inkscape:cy="487.92755"
     inkscape:cx="490.16712"
     inkscape:zoom="0.89903576"
     inkscape:bbox-nodes="true"
     inkscape:bbox-paths="true"
     inkscape:snap-bbox="true"
     showgrid="true"
     id="namedview171"
     inkscape:window-height="1037"
     inkscape:window-width="1377"
     inkscape:pageshadow="2"
     inkscape:pageopacity="0"
     guidetolerance="10"
     gridtolerance="10"
     objecttolerance="10"
     borderopacity="1"
     bordercolor="#666666"
     pagecolor="#ffffff">
    <inkscape:grid
       id="grid1139"
       type="xygrid" />
  </sodipodi:namedview>
  <style
     id="style2">
  .area{fill:#fff;}
 </style>
  <rect
     class="sea"
     fill="#214478"
     width="1000"
     height="700"
     id="rect4"
     x="0"
     y="0" />
  <path
     class="siren"
     fill="#ff5555"
     d="m 490,240 40,20 20,60 40,40 -20,60 -40,20 -20,60 h -60 l -80,-40 60,-60 h 20 l 20,-20 v -40 l 20,-20 z"
     id="path6" />
  <path
     id="sb11"
     class="sea1"
     fill="#d5e5ff"
     d="m 80,540 v 20 L 20,620 40,580 H 20 L 0,600 V 500 h 80 z" />
  <path
     id="sa11"
     class="area"
     fill="#fff"
     d="m 10,505 a 5.0005,5.0005 0 0 0 -5,5 v 65.859 a 5.0005,5.0005 0 0 0 8.5352,3.5352 l 2.9297,-2.9297 c 0.93901,-0.93913 2.2071,-1.4646 3.5352,-1.4648 h 20 c 2.101,0.002 3.9433,1.2801 4.6797,3.248 a 5.0005,5.0005 0 0 0 8.2188,1.7832 l 3.5664,-3.5664 17.07,-17.072 a 5.0005,5.0005 0 0 0 1.4648,-3.5352 v -45.857 a 5.0005,5.0005 0 0 0 -5,-5 z" />
  <path
     id="sb12"
     class="sea2"
     fill="#aaccff"
     d="m 80,560 v -20 h 20 l 20,20 h 20 l 20,40 v 20 H 120 L 80,640 60,620 H 20 Z" />
  <path
     id="sa12"
     class="area"
     fill="#fff"
     d="M 90 545 A 5.0005 5.0005 0 0 0 89.625 545.01953 A 5.0005 5.0005 0 0 0 88.521484 545.24609 A 5.0005 5.0005 0 0 0 87.996094 545.44922 A 5.0005 5.0005 0 0 0 87.660156 545.61914 A 5.0005 5.0005 0 0 0 87.337891 545.8125 A 5.0005 5.0005 0 0 0 87.181641 545.91797 A 5.0005 5.0005 0 0 0 87.03125 546.0293 A 5.0005 5.0005 0 0 0 86.740234 546.26953 A 5.0005 5.0005 0 0 0 86.21875 546.81055 A 5.0005 5.0005 0 0 0 85.884766 547.26367 A 5.0005 5.0005 0 0 0 85.785156 547.42383 A 5.0005 5.0005 0 0 0 85.691406 547.58594 A 5.0005 5.0005 0 0 0 85.447266 548.09375 A 5.0005 5.0005 0 0 0 85.378906 548.26953 A 5.0005 5.0005 0 0 0 85.214844 548.80859 A 5.0005 5.0005 0 0 0 85.171875 548.99219 A 5.0005 5.0005 0 0 0 85.138672 549.17773 A 5.0005 5.0005 0 0 0 85.089844 549.55078 A 5.0005 5.0005 0 0 0 85.076172 549.73828 A 5.0005 5.0005 0 0 0 85.080078 550.30078 A 5.0005 5.0005 0 0 0 85.144531 550.86133 A 5.0005 5.0005 0 0 0 85.273438 551.41016 A 5.0005 5.0005 0 0 0 85.462891 551.94141 A 5.0005 5.0005 0 0 0 85.621094 552.2832 A 5.0005 5.0005 0 0 0 85.710938 552.44727 A 5.0005 5.0005 0 0 0 85.804688 552.60938 A 5.0005 5.0005 0 0 0 86.126953 553.07422 A 5.0005 5.0005 0 0 0 86.769531 553.75586 A 5.0005 5.0005 0 0 0 87.0625 553.99414 A 5.0005 5.0005 0 0 0 87.214844 554.10352 A 5.0005 5.0005 0 0 0 87.695312 554.40039 A 5.0005 5.0005 0 0 0 88.380859 554.70703 A 5.0005 5.0005 0 0 0 89.105469 554.90625 A 5.0005 5.0005 0 0 0 89.664062 554.98438 A 5.0005 5.0005 0 0 0 90 555 L 96 555 A 5.0005 5.0005 0 0 0 96.375 554.98047 A 5.0005 5.0005 0 0 0 97.117188 554.85742 A 5.0005 5.0005 0 0 0 97.65625 554.69336 A 5.0005 5.0005 0 0 0 98.003906 554.55078 A 5.0005 5.0005 0 0 0 99.115234 553.85352 A 5.0005 5.0005 0 0 0 99.259766 553.73047 A 5.0005 5.0005 0 0 0 99.396484 553.60352 A 5.0005 5.0005 0 0 0 99.658203 553.33203 A 5.0005 5.0005 0 0 0 99.898438 553.04297 A 5.0005 5.0005 0 0 0 100.00977 552.89062 A 5.0005 5.0005 0 0 0 100.11523 552.73633 A 5.0005 5.0005 0 0 0 100.21484 552.57617 A 5.0005 5.0005 0 0 0 100.39648 552.24805 A 5.0005 5.0005 0 0 0 100.47852 552.07812 A 5.0005 5.0005 0 0 0 100.55273 551.90625 A 5.0005 5.0005 0 0 0 100.62109 551.73047 A 5.0005 5.0005 0 0 0 100.82812 551.00781 A 5.0005 5.0005 0 0 0 100.91016 550.44922 A 5.0005 5.0005 0 0 0 100.81836 548.95312 A 5.0005 5.0005 0 0 0 100.66992 548.41016 A 5.0005 5.0005 0 0 0 100.53711 548.05859 A 5.0005 5.0005 0 0 0 100.46094 547.88672 A 5.0005 5.0005 0 0 0 99.755859 546.7793 A 5.0005 5.0005 0 0 0 99.630859 546.63867 A 5.0005 5.0005 0 0 0 99.085938 546.12109 A 5.0005 5.0005 0 0 0 98.9375 546.00586 A 5.0005 5.0005 0 0 0 98.628906 545.79102 A 5.0005 5.0005 0 0 0 98.46875 545.69336 A 5.0005 5.0005 0 0 0 98.304688 545.59961 A 5.0005 5.0005 0 0 0 98.138672 545.51367 A 5.0005 5.0005 0 0 0 97.96875 545.43359 A 5.0005 5.0005 0 0 0 97.619141 545.29297 A 5.0005 5.0005 0 0 0 97.441406 545.23438 A 5.0005 5.0005 0 0 0 97.261719 545.17969 A 5.0005 5.0005 0 0 0 96.708984 545.06055 A 5.0005 5.0005 0 0 0 96.148438 545.00391 A 5.0005 5.0005 0 0 0 96 545 L 95.857422 545 L 90 545 z M 131.77148 565 A 2.50025 2.50025 0 0 0 130.65234 569.73633 L 135.44336 572.13281 A 2.50025 2.50025 0 0 0 138.79883 568.7793 L 137.60156 566.38281 A 2.50025 2.50025 0 0 0 135.36523 565 L 131.77148 565 z M 64.142578 585 A 5.0005 5.0005 0 0 0 60.607422 586.46484 L 40.605469 606.46484 A 5.0005 5.0005 0 0 0 44.140625 615 L 60 615 C 61.328047 615.00026 62.596147 615.52571 63.535156 616.46484 L 78.439453 631.36719 A 5.0005 5.0005 0 0 0 84.210938 632.30469 L 117.76367 615.5293 C 118.45819 615.18188 119.22344 615.00012 120 615 L 140 615 L 150 615 A 5.0005 5.0005 0 0 0 155 610 L 155 602.36133 A 5.0005 5.0005 0 0 0 154.47656 600.13477 L 154.28125 599.74219 A 5.0005 5.0005 0 0 0 149.70898 596.9707 A 5.0005 5.0005 0 0 0 144.90234 600.98438 C 144.42715 603.34982 142.41271 604.9999 140 605 L 120 605 C 118.67195 604.99974 117.40385 604.47429 116.46484 603.53516 L 99.392578 586.46484 A 5.0005 5.0005 0 0 0 95.857422 585 L 64.142578 585 z" />
  <path
     id="sb13"
     class="sea1"
     fill="#d5e5ff"
     d="m 180,620 -20,20 v 20 l -40,20 H 60 l 20,-40 40,-20 z" />
  <path
     id="sa13"
     class="area"
     fill="#fff"
     d="m 122.36,625 a 5.0005,5.0005 0 0 0 -2.2363,0.52734 l -34.908,17.453 a 5.0005,5.0005 0 0 0 -2.2363,2.2363 l -11.273,22.547 a 5.0005,5.0005 0 0 0 4.4727,7.2363 h 41.459 a 5.0005,5.0005 0 0 0 2.2363,-0.52734 l 32.361,-16.18 a 5.0005,5.0005 0 0 0 2.7637,-4.4727 v -13.82 c 2.6e-4,-1.328 0.52571,-2.5962 1.4648,-3.5352 l 2.9297,-2.9297 a 5.0005,5.0005 0 0 0 -3.5352,-8.5352 z" />
  <path
     id="sb14"
     class="sea2"
     fill="#aaccff"
     d="m 200,600 v 20 h -20 l -20,20 v 20 l 60,20 h 40 l 20,20 h 20 v -40 l -20,-60 z" />
  <path
     id="sa14"
     class="area"
     fill="#fff"
     d="m 210,605 a 5.0005,5.0005 0 0 0 -5,5 v 10 c -2.8e-4,2.8208 -2.1792,4.9997 -5,5 h -15.857 a 5.0005,5.0005 0 0 0 -3.5352,1.4648 l -14.143,14.143 A 5.0005,5.0005 0 0 0 165,644.143 v 8.6504 a 5.0005,5.0005 0 0 0 3.418,4.7441 l 51.623,17.207 a 5.0005,5.0005 0 0 0 1.582,0.25586 H 260 c 1.328,2.6e-4 2.5962,0.52571 3.5352,1.4648 l 17.072,17.07 a 5.0005,5.0005 0 0 0 3.5352,1.4648 h 5.8574 a 5.0005,5.0005 0 0 0 5,-5 v -28.377 a 5.0005,5.0005 0 0 0 -0.25586,-1.582 l -17.207,-51.623 a 5.0005,5.0005 0 0 0 -4.7441,-3.418 z" />
  <path
     id="sb21"
     class="sea2"
     fill="#aaccff"
     d="m 300,330 40,30 -80,40 -20,40 -40,-40 20,-20 60,-20 z" />
  <path
     id="sa21"
     class="area"
     fill="#fff"
     d="M 302.47852 339.3418 A 5.0005 5.0005 0 0 0 298.29688 341.56836 L 284.16016 362.77344 C 283.54283 363.69925 282.63573 364.3903 281.58008 364.74219 L 223.82031 383.99609 A 5.0005 5.0005 0 0 0 221.86719 385.20508 L 210.60547 396.46484 A 5.0005 5.0005 0 0 0 210.60547 403.53516 L 233.72461 426.6543 A 5.0005 5.0005 0 0 0 241.73242 425.35547 L 255.5293 397.76367 C 256.01345 396.7957 256.7957 396.01345 257.76367 395.5293 L 323.29297 362.76562 A 5.0005 5.0005 0 0 0 324.05664 354.29297 L 305.45703 340.3418 A 5.0005 5.0005 0 0 0 302.47852 339.3418 z" />
  <path
     id="sb22"
     class="sea1"
     fill="#d5e5ff"
     d="m 180,400 h 20 l 40,40 v 40 l 20,60 v 20 l -20,-20 -20,20 -20,-40 -20,-20 z" />
  <path
     id="sa22"
     class="area"
     fill="#fff"
     d="m 190,405 a 5.0005,5.0005 0 0 0 -5,5 v 85.857 a 5.0005,5.0005 0 0 0 1.4648,3.5352 l 17.07,17.072 c 0.37997,0.37988 0.69708,0.81833 0.9375,1.2988 h -0.002 l 13.797,27.592 a 5.0005,5.0005 0 0 0 8.0078,1.2988 l 10.189,-10.188 c 1.9947,-1.9938 5.0756,-1.9938 7.0703,0 l 0.0488,0.0469 a 5.0005,5.0005 0 0 0 8.2793,-5.1172 l -16.605,-49.816 c -0.16991,-0.50993 -0.25765,-1.0426 -0.25775,-1.5801 v -35.857 a 5.0005,5.0005 0 0 0 -1.4648,-3.5352 l -34.143,-34.143 a 5.0005,5.0005 0 0 0 -3.5352,-1.4648 z" />
  <path
     id="sb23"
     class="sea1"
     fill="#d5e5ff"
     d="m 340,360 v 20 l 40,20 -40,40 -10,40 -30,-20 -60,-20 20,-40 z" />
  <path
     id="sa23"
     class="area"
     fill="#fff"
     d="M 329.95508 371.17969 A 5.0005 5.0005 0 0 0 327.76367 371.70703 L 265.2168 402.98047 A 5.0005 5.0005 0 0 0 262.98047 405.2168 L 249.62695 431.92383 A 5.0005 5.0005 0 0 0 252.51758 438.9043 L 301.58008 455.25781 A 5.0005 5.0005 0 0 0 301.58203 455.25781 C 302.00368 455.39832 302.4036 455.59336 302.77344 455.83984 L 320.9668 467.96875 A 5.0005 5.0005 0 0 0 328.5918 465.02148 L 335.15039 438.78711 C 335.37072 437.90879 335.82443 437.1051 336.46484 436.46484 L 366.6543 406.27539 A 5.0005 5.0005 0 0 0 365.35547 398.26758 L 337.76367 384.4707 C 336.06048 383.61885 335.00024 381.90434 335 380 L 335 376.17969 A 5.0005 5.0005 0 0 0 329.95508 371.17969 z" />
  <path
     id="sb24"
     class="sea3"
     fill="#80b3ff"
     d="m 180,500 h -80 v 40 l 20,20 h 20 l 20,40 h 100 v -40 l -20,-20 -20,20 -20,-40 z" />
  <path
     id="sa24"
     class="area"
     fill="#fff"
     d="m 110,505 a 5.0005,5.0005 0 0 0 -5,5 v 25.857 a 5.0005,5.0005 0 0 0 1.4648,3.5352 l 14.143,14.143 A 5.0005,5.0005 0 0 0 124.143,555 H 140 c 1.9043,2.4e-4 3.6188,1.0605 4.4707,2.7637 l 17.236,34.473 a 5.0005,5.0005 0 0 0 4.4727,2.7637 h 83.82 a 5.0005,5.0005 0 0 0 5,-5 v -25.857 a 5.0005,5.0005 0 0 0 -1.4648,-3.5352 l -10,-10.002 a 5.0005,5.0005 0 0 0 -7.0703,0 l -12.93,12.928 c -2.5166,2.5154 -6.4122,1.8836 -8.0059,-1.2969 l -0.002,-0.002 -19.273,-38.547 a 5.0005,5.0005 0 0 0 -0.9375,-1.2988 l -15.922,-15.924 a 5.0005,5.0005 0 0 0 -3.5352,-1.4648 z" />
  <path
     id="sb25"
     class="sea2"
     fill="#aaccff"
     d="m 370,460 -40,20 10,-40 40,-40 20,10 h 20 z" />
  <path
     id="sa25"
     class="area"
     fill="#fff"
     d="M 382.03516 407.16797 A 5.0005 5.0005 0 0 0 378.43945 408.63281 L 345.49414 441.57812 A 5.0005 5.0005 0 0 0 344.17773 443.90039 L 340.12305 460.12109 A 5.0005 5.0005 0 0 0 347.21094 465.80664 L 366.31445 456.25391 A 5.0005 5.0005 0 0 0 367.61328 455.31641 L 400.0293 422.90039 A 5.0005 5.0005 0 0 0 398.25 414.68359 C 398.08525 414.62179 397.92296 414.55143 397.76562 414.47266 A 5.0005 5.0005 0 0 0 397.76367 414.4707 L 384.21094 407.69531 A 5.0005 5.0005 0 0 0 382.03516 407.16797 z" />
  <path
     id="sb31"
     class="sea2"
     fill="#aaccff"
     d="m 240,440 v 40 l 20,60 v 20 l 70,20 V 480 l -30,-20 z" />
  <path
     id="sa31"
     class="area"
     fill="#fff"
     d="M 249.91602 448.87305 A 5.0005 5.0005 0 0 0 245 453.87305 L 245 478.37695 A 5.0005 5.0005 0 0 0 245.25586 479.95898 L 264.74219 538.41992 C 264.91222 538.92979 264.9999 539.46253 265 540 L 265 552.45703 A 5.0005 5.0005 0 0 0 268.62695 557.26562 L 318.62695 571.55078 A 5.0005 5.0005 0 0 0 325 566.74219 L 325 485.35156 A 5.0005 5.0005 0 0 0 322.77344 481.19141 L 298.33984 464.90234 A 5.0005 5.0005 0 0 0 297.14844 464.31836 L 251.58203 449.12891 A 5.0005 5.0005 0 0 0 249.91602 448.87305 z" />
  <path
     id="sb32"
     class="sea1"
     fill="#d5e5ff"
     d="m 370,460 -40,20 v 100 h 70 V 475 Z" />
  <path
     id="sa32"
     class="area"
     fill="#fff"
     d="M 370.0625 466.17969 A 5.0005 5.0005 0 0 0 367.76367 466.70703 L 337.76367 481.70703 A 5.0005 5.0005 0 0 0 335 486.17969 L 335 570 A 5.0005 5.0005 0 0 0 340 575 L 390 575 A 5.0005 5.0005 0 0 0 395 570 L 395 481.17969 A 5.0005 5.0005 0 0 0 392.23633 476.70703 L 372.23633 466.70703 A 5.0005 5.0005 0 0 0 370.0625 466.17969 z" />
  <path
     id="sb33"
     class="sea1"
     fill="#d5e5ff"
     d="m 260,560 v 40 h 20 l 20,60 v 40 h 40 v -60 l -10,-20 v -40 z" />
  <path
     id="sa33"
     class="area"
     fill="#fff"
     d="M 269.88672 568.25781 A 5.0005 5.0005 0 0 0 265 573.25781 L 265 590 A 5.0005 5.0005 0 0 0 270 595 L 280 595 C 282.1714 595.00028 284.05542 596.35999 284.74219 598.41992 L 304.74219 658.41992 C 304.91222 658.92979 304.9999 659.46253 305 660 L 305 690 A 5.0005 5.0005 0 0 0 310 695 L 330 695 A 5.0005 5.0005 0 0 0 335 690 L 335 642.36133 A 5.0005 5.0005 0 0 0 334.47266 640.125 L 325.5293 622.23633 C 325.18188 621.54181 325.00012 620.77656 325 620 L 325 587.54297 A 5.0005 5.0005 0 0 0 321.37305 582.73438 L 271.37305 568.44922 A 5.0005 5.0005 0 0 0 270.07422 568.25781 A 5.0005 5.0005 0 0 0 269.88672 568.25781 z" />
  <path
     id="sb34"
     class="sea2"
     fill="#aaccff"
     d="m 400,580 h -70 v 40 l 10,20 v 60 h 80 l -20,-60 z" />
  <path
     id="sa34"
     class="area"
     fill="#fff"
     d="M 340 585 A 5.0005 5.0005 0 0 0 335 590 L 335 617.63867 A 5.0005 5.0005 0 0 0 335.52734 619.875 L 344.4707 637.76367 C 344.81812 638.45819 344.99988 639.22344 345 640 L 345 690 A 5.0005 5.0005 0 0 0 350 695 L 406.12695 695 A 5.0005 5.0005 0 0 0 410.87109 688.41797 L 395.25781 641.58008 C 395.08778 641.07021 395.0001 640.53747 395 640 L 395 590 A 5.0005 5.0005 0 0 0 390 585 L 340 585 z" />
  <path
     id="sb41"
     class="sea1"
     fill="#d5e5ff"
     d="m 260,200 h 20 l 60,20 20,40 v 30 l 10,30 v 20 l -30,20 -40,-30 v -30 h 20 v -20 h -20 v -40 z" />
  <path
     id="sa41"
     class="area"
     fill="#fff"
     d="M 286.93945 207.88477 A 5.0005 5.0005 0 0 0 283.48828 216.41797 L 303.53516 236.46484 C 304.47429 237.40385 304.99974 238.67195 305 240 L 305 270 A 5.0005 5.0005 0 0 0 310 275 L 320 275 C 322.82077 275.00028 324.99972 277.17923 325 280 L 325 300 C 324.99972 302.82077 322.82077 304.99972 320 305 L 310 305 A 5.0005 5.0005 0 0 0 305 310 L 305 325 A 5.0005 5.0005 0 0 0 307 329 L 337.33984 351.75586 A 5.0005 5.0005 0 0 0 343.11328 351.91602 L 362.77344 338.80859 A 5.0005 5.0005 0 0 0 365 334.64844 L 365 321.62305 A 5.0005 5.0005 0 0 0 364.74414 320.04297 L 355.25781 291.58203 A 5.0005 5.0005 0 0 0 355.25781 291.58008 C 355.08778 291.07026 355.0001 290.53747 355 290 L 355 262.36133 A 5.0005 5.0005 0 0 0 354.47266 260.125 L 337.38086 225.94141 A 5.0005 5.0005 0 0 0 334.49023 223.43359 L 288.60547 208.13867 A 5.0005 5.0005 0 0 0 286.93945 207.88477 z " />
  <path
     id="sb42"
     class="sea3"
     fill="#80b3ff"
     d="m 180,380 h -20 v 20 h 40 l 20,-20 60,-20 20,-30 v -30 h -20 v -40 l -20,20 -40,-20 -40,40 40,-20 v 40 h 40 v 20 h -20 l -20,20 v -20 h -20 l -20,20 z" />
  <path
     id="sa42"
     class="area"
     fill="#fff"
     d="m 229.08594,270.69141 c -3.70395,-0.0456 -6.16997,3.8114 -4.57422,7.15429 0.3214,0.67289 0.48815,1.40859 0.48828,2.1543 v 30 c 2.8e-4,2.76131 2.23869,4.99972 5,5 h 30 c 2.82077,2.8e-4 4.99972,2.17923 5,5 v 20 c -2.8e-4,2.82077 -2.17923,4.99972 -5,5 h -15.85742 c -1.326,2.5e-4 -2.5976,0.52716 -3.53516,1.46484 l -17.07226,17.07032 -0.0117,0.0117 -0.0254,0.0254 -4.16993,1.38085 C 216.81203,364.61173 215.00145,362.5389 215,360 v -10 c -2.8e-4,-2.76131 -2.23869,-4.99972 -5,-5 h -5.85742 c -1.326,2.5e-4 -2.5976,0.52716 -3.53516,1.46484 l -14.14258,14.14258 c -0.93768,0.93756 -1.46459,2.20916 -1.46484,3.53516 V 380 c -2.8e-4,2.82077 -2.17923,4.99972 -5,5 -6.57305,0.093 -6.57305,9.90704 0,10 h 15.85742 c 1.326,-2.5e-4 2.5976,-0.52716 3.53516,-1.46484 l 17.07226,-17.07032 c 0.54855,-0.54862 1.21726,-0.96134 1.95313,-1.20703 l 1.81836,-0.60547 8.36719,-2.78906 46.56054,-15.52148 c 1.05456,-0.35204 1.96172,-1.04547 2.57813,-1.97071 l 16.41797,-24.625 c 0.54755,-0.82132 0.83977,-1.78632 0.83984,-2.77343 V 310 c -2.8e-4,-2.76131 -2.23869,-4.99972 -5,-5 h -10 c -2.82077,-2.8e-4 -4.99972,-2.17923 -5,-5 v -15.85938 c -0.002,-4.45319 -5.38519,-6.68294 -8.53516,-3.53515 l -2.92968,2.92969 c -1.53558,1.53527 -3.82924,1.90648 -5.77149,0.93554 l -26.5039,-13.25195 c -0.67549,-0.33767 -1.4187,-0.51796 -2.17383,-0.52734 z" />
  <path
     id="sb43"
     class="sea2"
     fill="#aaccff"
     d="m 360,260 v 30 l 10,30 60,-20 -30,-40 z" />
  <path
     id="sa43"
     class="area"
     fill="#fff"
     d="M 370 265 A 5.0005 5.0005 0 0 0 365 270 L 365 288.37695 A 5.0005 5.0005 0 0 0 365.25586 289.95703 L 371.58008 308.93164 A 5.0005 5.0005 0 0 0 377.90625 312.0957 L 415.25781 299.64453 A 5.0005 5.0005 0 0 0 417.67578 291.90039 L 399 267 A 5.0005 5.0005 0 0 0 395 265 L 370 265 z" />
  <path
     id="sb44"
     class="sea2"
     fill="#aaccff"
     d="m 100,500 h 80 V 400 h -20 v -20 l -40,80 -20,20 z" />
  <path
     id="sa44"
     class="area"
     fill="#fff"
     d="m 156.41,404.37 a 5.0005,5.0005 0 0 0 -4.3828,2.7637 l -27.553,55.107 h 0.002 c -0.24042,0.4805 -0.55753,0.91895 -0.9375,1.2988 l -17.07,17.072 a 5.0005,5.0005 0 0 0 -1.4649,3.5352 v 5.8574 a 5.0005,5.0005 0 0 0 5,5 h 60 a 5.0005,5.0005 0 0 0 5,-5 v -80 a 5.0005,5.0005 0 0 0 -5,-5 h -10 c -0.59771,-3.7e-4 -1.1902,-0.1088 -1.75,-0.31836 a 5.0005,5.0005 0 0 0 -1.8438,-0.31641 z" />
  <path
     id="sb51"
     class="sea2"
     fill="#aaccff"
     d="m 500,500 -40,40 v 60 L 440,580 H 400 V 475 l 50,25 z" />
  <path
     id="sa51"
     class="area"
     fill="#fff"
     d="M 410.0625 486.17969 A 5.0005 5.0005 0 0 0 405 491.17969 L 405 570 A 5.0005 5.0005 0 0 0 410 575 L 440 575 C 441.32805 575.00026 442.59615 575.52571 443.53516 576.46484 L 446.46484 579.39453 A 5.0005 5.0005 0 0 0 455 575.85938 L 455 540 C 455.00026 538.67195 455.52571 537.40385 456.46484 536.46484 L 479.39453 513.53516 A 5.0005 5.0005 0 0 0 475.85938 505 L 450 505 C 449.22344 504.99988 448.45819 504.81812 447.76367 504.4707 L 412.23633 486.70703 A 5.0005 5.0005 0 0 0 410.0625 486.17969 z" />
  <path
     id="sb52"
     class="sea1"
     fill="#d5e5ff"
     d="m 500,500 h 50 l -30,60 v 60 h -40 l -20,-20 v -60 z" />
  <path
     id="sa52"
     class="area"
     fill="#fff"
     d="M 504.14062 505 A 5.0005 5.0005 0 0 0 500.60547 506.46484 L 466.46484 540.60742 A 5.0005 5.0005 0 0 0 465 544.14258 L 465 595.85742 A 5.0005 5.0005 0 0 0 466.46484 599.39258 L 480.60742 613.53516 A 5.0005 5.0005 0 0 0 484.14258 615 L 510 615 A 5.0005 5.0005 0 0 0 515 610 L 515 560 C 515.00012 559.22344 515.18188 558.45819 515.5293 557.76367 L 538.29297 512.23633 A 5.0005 5.0005 0 0 0 533.82031 505 L 504.14062 505 z" />
  <path
     id="sb53"
     class="sea1"
     fill="#d5e5ff"
     d="m 400,580 h 40 l 20,20 v 60 l 20,40 h -60 l -20,-60 z" />
  <path
     id="sa53"
     class="area"
     fill="#fff"
     d="m 410,585 a 5.0005,5.0005 0 0 0 -5,5 v 48.377 a 5.0005,5.0005 0 0 0 0.25586,1.582 l 17.207,51.623 a 5.0005,5.0005 0 0 0 4.7441,3.418 h 36.613 a 5.0005,5.0005 0 0 0 4.4727,-7.2363 l -12.764,-25.527 c -0.34742,-0.69452 -0.52918,-1.4598 -0.5293,-2.2363 v -55.857 a 5.0005,5.0005 0 0 0 -1.4648,-3.5352 l -14.143,-14.143 a 5.0005,5.0005 0 0 0 -3.5352,-1.4648 z" />
  <path
     id="sb54"
     class="sea2"
     fill="#aaccff"
     d="m 460,600 20,20 h 40 l 20,20 h 20 v 20 l -20,20 v 20 h -60 l -20,-40 z" />
  <path
     id="sa54"
     class="area"
     fill="#fff"
     d="m 469.98,619.14 a 5.0005,5.0005 0 0 0 -4.9785,5 v 33.498 a 5.0005,5.0005 0 0 0 0.52734,2.2363 l 16.18,32.361 a 5.0005,5.0005 0 0 0 4.4727,2.7637 h 43.82 a 5.0005,5.0005 0 0 0 5,-5 v -10 c 2.6e-4,-1.328 0.52571,-2.5962 1.4648,-3.5352 l 17.07,-17.072 a 5.0005,5.0005 0 0 0 1.4648,-3.5352 v -5.8574 a 5.0005,5.0005 0 0 0 -5,-5 h -10 c -1.328,-2.6e-4 -2.5962,-0.52571 -3.5352,-1.4648 l -17.072,-17.07 a 5.0005,5.0005 0 0 0 -3.5352,-1.4648 h -35.857 c -1.328,-2.6e-4 -2.5962,-0.52571 -3.5352,-1.4648 l -2.9297,-2.9297 a 5.0005,5.0005 0 0 0 -3.5566,-1.4648 z" />
  <path
     id="sb61"
     class="sea3"
     fill="#80b3ff"
     d="m 570,420 h 20 l -20,20 v 40 l -20,20 h -40 l 20,-60 z" />
  <path
     id="sa61"
     class="area"
     fill="#fff"
     d="m 560.9,430.69 a 5.0005,5.0005 0 0 0 -2.1621,0.52539 l -22.799,11.4 a 5.0005,5.0005 0 0 0 -2.5078,2.8906 l -14.305,42.908 a 5.0005,5.0005 0 0 0 4.7441,6.582 h 21.984 a 5.0005,5.0005 0 0 0 3.5352,-1.4648 l 14.143,-14.143 a 5.0005,5.0005 0 0 0 1.4648,-3.5352 v -35.857 c 1.3e-4,-0.74571 0.16688,-1.4814 0.48828,-2.1543 a 5.0005,5.0005 0 0 0 -4.5859,-7.1523 z" />
  <path
     id="sb62"
     class="sea3"
     fill="#80b3ff"
     d="m 700,400 h -60 v 20 l -20,20 v 40 h 80 v -20 l 20,-20 -20,-20 z" />
  <path
     id="sa62"
     class="area"
     fill="#fff"
     d="m 650,405 a 5.0005,5.0005 0 0 0 -5,5 v 10 c -2.6e-4,1.328 -0.52571,2.5962 -1.4648,3.5352 l -17.07,17.072 a 5.0005,5.0005 0 0 0 -1.4648,3.5352 v 25.857 a 5.0005,5.0005 0 0 0 5,5 h 60 a 5.0005,5.0005 0 0 0 5,-5 v -10 c 2.6e-4,-1.328 0.52571,-2.5962 1.4648,-3.5352 l 12.93,-12.93 a 5.0005,5.0005 0 0 0 0,-7.0703 l -12.93,-12.93 c -0.93913,-0.93901 -1.4646,-2.2071 -1.4648,-3.5352 v -10 a 5.0005,5.0005 0 0 0 -5,-5 z" />
  <path
     id="sb63"
     class="sea3"
     fill="#80b3ff"
     d="m 550,500 30,20 v 40 l -20,40 v 40 h -20 l -20,-20 v -60 z" />
  <path
     class="area"
     fill="#fff"
     d="M 553.81055 509.60352 A 5.0005 5.0005 0 0 0 549.40625 512.36719 L 525.52734 560.125 A 5.0005 5.0005 0 0 0 525 562.36133 L 525 615.85742 A 5.0005 5.0005 0 0 0 526.46484 619.39258 L 540.60742 633.53516 A 5.0005 5.0005 0 0 0 544.14258 635 L 550 635 A 5.0005 5.0005 0 0 0 555 630 L 555 600 C 555.00012 599.22344 555.18188 598.45819 555.5293 597.76367 L 574.47266 559.875 A 5.0005 5.0005 0 0 0 575 557.63867 L 575 525.35156 A 5.0005 5.0005 0 0 0 572.77344 521.19141 L 556.65234 510.44336 A 5.0005 5.0005 0 0 0 553.81055 509.60352 z "
     id="sa63" />
  <path
     id="sb64"
     class="sea1"
     fill="#d5e5ff"
     d="m 620,640 h -60 v 20 l -20,20 v 20 h 80 z" />
  <path
     id="sa64"
     class="area"
     fill="#fff"
     d="m 570,645 a 5.0005,5.0005 0 0 0 -5,5 v 10 c -2.6e-4,1.328 -0.52571,2.5962 -1.4648,3.5352 l -17.07,17.072 a 5.0005,5.0005 0 0 0 -1.4648,3.5352 v 5.8574 a 5.0005,5.0005 0 0 0 5,5 h 60 a 5.0005,5.0005 0 0 0 5,-5 v -40 a 5.0005,5.0005 0 0 0 -5,-5 z" />
  <path
     id="sb65"
     class="sea1"
     fill="#d5e5ff"
     d="m 590,420 h 50 l -20,20 v 40 l -40,40 -30,-20 20,-20 v -40 z" />
  <path
     class="area"
     fill="#fff"
     d="M 594.14062 425 A 5.0005 5.0005 0 0 0 590.60547 426.46484 L 576.46484 440.60742 A 5.0005 5.0005 0 0 0 575 444.14258 L 575 480 C 574.99974 481.32805 574.47429 482.59615 573.53516 483.53516 L 562.16016 494.91016 A 5.0005 5.0005 0 0 0 562.92188 502.60547 L 575.95312 511.29297 A 5.0005 5.0005 0 0 0 582.26172 510.66797 L 613.53516 479.39258 A 5.0005 5.0005 0 0 0 615 475.85742 L 615 440 C 615.00026 438.67195 615.52571 437.40385 616.46484 436.46484 L 619.39453 433.53516 A 5.0005 5.0005 0 0 0 615.85938 425 L 594.14062 425 z "
     id="sa65" />
  <path
     id="sb66"
     class="sea2"
     fill="#aaccff"
     d="m 700,480 h -80 l -40,40 v 40 l -20,40 v 40 h 60 l 40,-120 40,-20 z" />
  <path
     id="sa66"
     class="area"
     fill="#fff"
     d="m 624.14,485 a 5.0005,5.0005 0 0 0 -3.5352,1.4648 l -34.143,34.143 a 5.0005,5.0005 0 0 0 -1.4648,3.5352 V 560 c -1.2e-4,0.77656 -0.18188,1.5418 -0.5293,2.2363 l -18.943,37.889 a 5.0005,5.0005 0 0 0 -0.52734,2.2363 v 27.639 a 5.0005,5.0005 0 0 0 5,5 h 42.793 a 5.0005,5.0005 0 0 0 4.7441,-3.418 l 37.721,-113.16 c 0.42001,-1.2597 1.3182,-2.2966 2.5059,-2.8906 l 34.473,-17.236 a 5.0005,5.0005 0 0 0 2.7637,-4.4727 v -3.8203 a 5.0005,5.0005 0 0 0 -5,-5 z" />
  <path
     id="sb71"
     class="sea2"
     fill="#aaccff"
     d="m 720,440 60,-20 20,-60 60,-20 40,40 v 20 l -20,20 h -20 z" />
  <path
     id="sa71"
     class="area"
     fill="#fff"
     d="m 857.28,346.44 a 5.0005,5.0005 0 0 0 -1.5605,0.25586 l -49.393,16.465 a 5.0005,5.0005 0 0 0 -3.1621,3.1621 l -17.303,51.904 a 5.0005,5.0005 0 0 0 5.4512,6.5312 l 67.982,-9.7109 -0.004,0.002 c 0.23423,-0.0333 0.47045,-0.0509 0.70703,-0.0508 a 5.0005,5.0005 0 0 0 0.004,0 h 15.857 a 5.0005,5.0005 0 0 0 3.5352,-1.4648 l 14.143,-14.143 a 5.0005,5.0005 0 0 0 1.4648,-3.5352 v -11.715 a 5.0005,5.0005 0 0 0 -1.4648,-3.5352 l -32.701,-32.701 a 5.0005,5.0005 0 0 0 -3.5566,-1.4648 z" />
  <path
     id="sb72"
     class="sea2"
     fill="#aaccff"
     d="m 900,320 40,40 v 40 l 20,40 h -60 v -20 l 20,-20 v -20 l -40,-40 z" />
  <path
     id="sa72"
     class="area"
     fill="#fff"
     d="m 899.98,329.14 a 5.0005,5.0005 0 0 0 -3.5137,1.4648 l -5.8594,5.8594 a 5.0005,5.0005 0 0 0 0,7.0703 l 32.93,32.93 c 0.93914,0.93902 1.4646,2.2071 1.4648,3.5352 -1.3e-4,0.66644 -0.2585,7.353 -0.74609,13.426 -0.2438,3.0364 -0.54708,6.0421 -0.87891,8.2559 -0.16235,1.0831 -0.33657,1.9645 -0.46875,2.4824 l -16.441,16.443 a 5.0005,5.0005 0 0 0 -1.4648,3.5352 v 5.8574 a 5.0005,5.0005 0 0 0 5,5 h 33.82 a 5.0005,5.0005 0 0 0 4.4727,-7.2363 l -12.477,-24.955 c -0.0118,-0.092 -0.0179,-0.11827 -0.0312,-0.24609 -0.062,-0.5882 -0.13206,-1.4984 -0.19532,-2.5742 -0.12651,-2.1516 -0.23635,-4.9938 -0.32422,-7.8438 -0.17583,-5.6999 -0.26561,-11.753 -0.26567,-12.145 v -15.857 a 5.0005,5.0005 0 0 0 -1.4648,-3.5352 l -30,-30.002 a 5.0005,5.0005 0 0 0 -3.5566,-1.4648 z" />
  <path
     id="sb73"
     class="sea1"
     fill="#d5e5ff"
     d="m 860,420 20,40 60,40 20,-40 40,20 V 440 H 900 l -20,-20 z" />
  <path
     id="sa73"
     class="area"
     fill="#fff"
     d="m 876.48,425.65 a 5.0005,5.0005 0 0 0 -4.4492,7.2344 l 11.254,22.508 a 5.0005,5.0005 0 0 0 1.6992,1.9238 l 48.365,32.244 a 5.0005,5.0005 0 0 0 7.2461,-1.9238 l 14.936,-29.869 h -0.002 c 0.93608,-1.871 2.79,-2.8767 4.7129,-2.7637 h 0.0898 c 0.6396,0.0495 1.2845,0.21847 1.9062,0.5293 l 25.527,12.764 a 5.0005,5.0005 0 0 0 7.2364,-4.4727 v -13.82 a 5.0005,5.0005 0 0 0 -5,-5 h -90 c -1.328,-2.6e-4 -2.5962,-0.52571 -3.5352,-1.4648 l -16.428,-16.426 a 5.0005,5.0005 0 0 0 -3.5586,-1.4629 z" />
  <path
     id="sb81"
     class="sea4"
     fill="#5599ff"
     d="m 340,220 h 40 l 20,20 h 40 v 60 h -10 l -30,-40 h -40 z" />
  <path
     id="sa81"
     class="area"
     fill="#fff"
     d="M 356.17969 225 A 5.0005 5.0005 0 0 0 351.70703 232.23633 L 361.70703 252.23633 A 5.0005 5.0005 0 0 0 366.17969 255 L 400 255 C 401.57831 255.00008 403.05295 255.7374 404 257 L 426 286.33398 A 5.0005 5.0005 0 0 0 435 283.33398 L 435 250 A 5.0005 5.0005 0 0 0 430 245 L 400 245 C 398.67195 244.99974 397.40385 244.47429 396.46484 243.53516 L 379.39258 226.46484 A 5.0005 5.0005 0 0 0 375.85742 225 L 356.17969 225 z " />
  <path
     id="sb82"
     class="sea2"
     fill="#aaccff"
     d="m 490,240 h -50 v 60 h 50 z" />
  <path
     id="sa82"
     class="area"
     fill="#fff"
     d="m 450,245 c -2.76131,2.8e-4 -4.99972,2.23869 -5,5 v 40 c 2.8e-4,2.76131 2.23869,4.99972 5,5 h 30 c 2.76131,-2.8e-4 4.99972,-2.23869 5,-5 v -40 c -2.8e-4,-2.76131 -2.23869,-4.99972 -5,-5 z" />
  <path
     id="sb83"
     class="sea3"
     fill="#80b3ff"
     d="m 340,360 30,-20 v -20 l 60,-20 h 10 v 30 l -20,10 v 25 l -40,35 -40,-20 z" />
  <path
     id="sa83"
     class="area"
     fill="#fff"
     d="M 429.95508 305.54102 A 5.0005 5.0005 0 0 0 428.41797 305.79688 L 378.41797 322.46289 A 5.0005 5.0005 0 0 0 375 327.20703 L 375 340 C 374.99986 341.67774 374.16936 343.22946 372.77344 344.16016 L 347.22656 361.19141 A 5.0005 5.0005 0 0 0 345 365.35156 L 345 373.82031 A 5.0005 5.0005 0 0 0 347.76367 378.29297 L 376.23047 392.52539 A 5.0005 5.0005 0 0 0 381.75977 391.81641 L 413.29297 364.22656 A 5.0005 5.0005 0 0 0 415 360.46289 L 415 340 C 415.00024 338.09566 416.06048 336.38115 417.76367 335.5293 L 432.23633 328.29297 A 5.0005 5.0005 0 0 0 435 323.82031 L 435 310.54102 A 5.0005 5.0005 0 0 0 429.95508 305.54102 z" />
  <path
     id="sb84"
     class="sea1"
     fill="#d5e5ff"
     d="m 420,120 40,40 -20,20 v 60 h -40 l -20,-20 v -20 l 20,-40 v -40 z" />
  <path
     id="sa84"
     class="area"
     fill="#fff"
     d="m 410,125 a 5.0005,5.0005 0 0 0 -5,5 v 30 c -1.2e-4,0.77656 -0.18188,1.5418 -0.5293,2.2363 l -18.943,37.889 a 5.0005,5.0005 0 0 0 -0.52734,2.2363 v 13.496 a 5.0005,5.0005 0 0 0 1.4648,3.5352 l 14.143,14.143 a 5.0005,5.0005 0 0 0 3.5352,1.4648 h 25.857 a 5.0005,5.0005 0 0 0 5,-5 v -50 c 2.6e-4,-1.328 0.52571,-2.5962 1.4648,-3.5352 l 12.93,-12.93 a 5.0005,5.0005 0 0 0 0,-7.0703 l -30,-30 a 5.0005,5.0005 0 0 0 -3.5352,-1.4648 z" />
  <path
     id="sb85"
     class="sea1"
     fill="#d5e5ff"
     d="m 430,400 -10,10 h -20 l -20,-10 40,-35 v -25 l 20,-10 v -30 h 50 v 20 l -20,20 v 40 l -20,20 z" />
  <path
     id="sa85"
     class="area"
     fill="#fff"
     d="M 450 305 A 5.0005 5.0005 0 0 0 445 310 L 445 330 C 444.99976 331.90434 443.93952 333.61885 442.23633 334.4707 L 427.76367 341.70703 A 5.0005 5.0005 0 0 0 425 346.17969 L 425 365 C 424.99999 366.44415 424.3793 367.81026 423.29297 368.76172 L 394.50195 393.95312 A 5.0005 5.0005 0 0 0 395.55859 402.18945 L 400.125 404.47266 A 5.0005 5.0005 0 0 0 402.36133 405 L 415.85742 405 A 5.0005 5.0005 0 0 0 419.39258 403.53516 L 426.46484 396.46484 C 427.40385 395.52571 428.67195 395.00026 430 395 L 445.85742 395 A 5.0005 5.0005 0 0 0 449.39258 393.53516 L 463.53516 379.39258 A 5.0005 5.0005 0 0 0 465 375.85742 L 465 340 C 465.00026 338.67195 465.52571 337.40385 466.46484 336.46484 L 483.53516 319.39258 A 5.0005 5.0005 0 0 0 485 315.85742 L 485 310 A 5.0005 5.0005 0 0 0 480 305 L 450 305 z" />
  <path
     id="sb91"
     class="sea3"
     fill="#80b3ff"
     d="m 510,160 h -50 l -20,20 v 60 h 50 v -60 z" />
  <path
     id="sa91"
     class="area"
     fill="#fff"
     d="m 464.14,165 c -1.326,2.3e-4 -2.59762,0.52712 -3.5352,1.4648 l -14.143,14.143 c -0.93768,0.93758 -1.46457,2.2092 -1.4648,3.5352 V 230 c 2.8e-4,2.76131 2.23869,4.99972 5,5 h 30 c 2.76131,-2.8e-4 4.99972,-2.23869 5,-5 v -50 c 2.6e-4,-1.328 0.52571,-2.5962 1.4648,-3.5352 l 2.9297,-2.9297 c 3.14787,-3.14998 0.91806,-8.53353 -3.5352,-8.5352 z" />
  <path
     id="sb92"
     class="sea3"
     fill="#80b3ff"
     d="m 420,60 v 60 l 40,40 30,-80 z" />
  <path
     id="sa92"
     class="area"
     fill="#fff"
     d="M 429.88867 68.257812 A 5.0005 5.0005 0 0 0 425 73.257812 L 425 115.85742 A 5.0005 5.0005 0 0 0 426.46484 119.39258 L 452.55469 145.48242 A 5.0005 5.0005 0 0 0 460.77148 143.70312 L 481.51172 88.394531 A 5.0005 5.0005 0 0 0 478.20312 81.832031 L 431.37305 68.451172 A 5.0005 5.0005 0 0 0 430.07617 68.257812 A 5.0005 5.0005 0 0 0 429.88867 68.257812 z " />
  <path
     id="sb93"
     class="sea2"
     fill="#aaccff"
     d="m 550,100 h -40 l -20,-20 -30,80 h 50 z" />
  <path
     id="sa93"
     class="area"
     fill="#fff"
     d="M 493.88867 93.050781 A 5.0005 5.0005 0 0 0 489.22852 96.294922 L 469.74805 148.24414 A 5.0005 5.0005 0 0 0 474.42969 155 L 504.64844 155 A 5.0005 5.0005 0 0 0 508.80859 152.77344 L 535.47461 112.77344 A 5.0005 5.0005 0 0 0 531.31445 105 L 510 105 C 508.67195 104.99974 507.40385 104.47429 506.46484 103.53516 L 497.44531 94.515625 A 5.0005 5.0005 0 0 0 493.88867 93.050781 z" />
  <path
     id="sb94"
     class="sea1"
     fill="#d5e5ff"
     d="m 550,0 h 50 V 20 L 580,0 v 40 l -10,10 v 30 l -20,20 H 510 L 490,80 530,20 Z" />
  <path
     id="sa94"
     class="area"
     fill="#fff"
     d="M 554.14062 5 A 5.0005 5.0005 0 0 0 550.60547 6.4648438 L 534.23633 22.835938 A 5.0005 5.0005 0 0 0 533.61133 23.597656 L 498.70703 75.953125 A 5.0005 5.0005 0 0 0 499.33203 82.261719 L 510.60742 93.535156 A 5.0005 5.0005 0 0 0 514.14258 95 L 545.85742 95 A 5.0005 5.0005 0 0 0 549.39258 93.535156 L 563.53516 79.392578 A 5.0005 5.0005 0 0 0 565 75.857422 L 565 50 C 565.00026 48.671953 565.52571 47.403853 566.46484 46.464844 L 573.53516 39.392578 A 5.0005 5.0005 0 0 0 575 35.857422 L 575 10 A 5.0005 5.0005 0 0 0 570 5 L 554.14062 5 z" />
  <path
     id="sb95"
     class="sea2"
     fill="#aaccff"
     d="M 490,80 530,20 550,0 h -70 l -40,20 -20,40 z" />
  <path
     id="sa95"
     class="area"
     fill="#fff"
     d="M 482.36133 5 A 5.0005 5.0005 0 0 0 480.125 5.5273438 L 445.2168 22.980469 A 5.0005 5.0005 0 0 0 442.98047 25.216797 L 429.85938 51.458984 A 5.0005 5.0005 0 0 0 432.95898 58.503906 L 484.35547 73.1875 A 5.0005 5.0005 0 0 0 489.88867 71.152344 L 525.83789 17.228516 L 525.83984 17.226562 C 526.02225 16.95354 526.23061 16.698884 526.46289 16.466797 A 5.0005 5.0005 0 0 0 526.46484 16.464844 L 529.39453 13.535156 A 5.0005 5.0005 0 0 0 525.85938 5 L 482.36133 5 z" />
  <path
     id="sb101"
     class="sea3"
     fill="#80b3ff"
     d="m 120,20 v 80 L 60,80 V 40 l 20,20 h 20 L 60,20 V 0 h 80 v 20 z" />
  <path
     id="sa101"
     class="area"
     fill="#fff"
     d="M 70 5 A 5.0005 5.0005 0 0 0 65 10 L 65 15.857422 A 5.0005 5.0005 0 0 0 66.464844 19.392578 L 103.5332 56.464844 C 104.39511 57.327349 104.85167 58.238338 105 59.160156 C 105.14833 60.081974 104.9895 61.01318 104.61719 61.912109 C 103.87254 63.709968 102.43673 64.999043 99.998047 65 L 80 65 C 78.671953 64.999744 77.403853 64.474289 76.464844 63.535156 L 73.535156 60.605469 A 5.0005 5.0005 0 0 0 65 64.140625 L 65 72.792969 A 5.0005 5.0005 0 0 0 68.417969 77.537109 L 108.41797 90.871094 A 5.0005 5.0005 0 0 0 115 86.126953 L 115 20 C 115.00028 17.179228 117.17923 15.000282 120 15 A 5.0005 5.0005 0 0 0 120 5 L 70 5 z" />
  <path
     id="sb102"
     class="sea2"
     fill="#aaccff"
     d="M 40,20 0,80 v 60 h 100 l 20,-20 V 100 L 60,80 V 60 H 40 Z" />
  <path
     id="sa102"
     class="area"
     fill="#fff"
     d="m 29.955,48.029 a 5.0005,5.0005 0 0 0 -4.1152,2.2246 l -20,30 A 5.0005,5.0005 0 0 0 4.99996,83.027 V 130 a 5.0005,5.0005 0 0 0 5,5 h 85.857 a 5.0005,5.0005 0 0 0 3.5352,-1.4648 l 14.143,-14.143 a 5.0005,5.0005 0 0 0 1.4648,-3.5352 v -8.6504 a 5.0005,5.0005 0 0 0 -3.418,-4.7441 l -53.162,-17.721 c -2.0599,-0.68677 -3.4196,-2.5708 -3.4199,-4.7422 v -10 a 5.0005,5.0005 0 0 0 -5,-5 h -10 c -2.8208,-2.82e-4 -4.9997,-2.1792 -5,-5 v -6.9727 a 5.0005,5.0005 0 0 0 -5.0449,-4.998 z" />
  <path
     id="sb103"
     class="sea2"
     fill="#aaccff"
     d="m 220,100 v 20 L 200,160 180,100 160,80 H 120 V 40 h 40 l 20,40 z" />
  <path
     id="sa103"
     class="area"
     fill="#fff"
     d="m 130,45 c -2.76131,2.76e-4 -4.99972,2.238691 -5,5 v 20 c 2.8e-4,2.761309 2.23869,4.999724 5,5 h 30 c 1.40333,0.0045 2.49132,0.642218 3.53516,1.464844 l 20,20 c 0.63989,0.611811 0.89071,1.229926 1.20703,1.955078 l 12.36523,37.097658 c 1.40892,4.22668 7.22492,4.63956 9.2168,0.6543 l 8.14844,-16.29688 c 0.34698,-0.69441 0.52753,-1.46006 0.52734,-2.23633 v -11.45898 c 1.3e-4,-1.89396 -1.06976,-3.62545 -2.76367,-4.47266 L 177.76367,84.472656 c -0.96775,-0.48387 -1.75246,-1.268575 -2.23633,-2.236328 l -6.71484,-13.43164 -0.0312,-0.06445 -10.48828,-20.976562 C 157.44576,46.069766 155.71427,44.999869 153.82031,45 Z" />
  <path
     id="sb104"
     class="sea3"
     fill="#80b3ff"
     d="m 340,80 h -40 l -20,60 v 60 H 260 L 240,140 220,120 V 100 L 200,60 240,80 V 60 L 200,0 h 20 l 20,40 20,-40 h 60 z" />
  <path
     id="sa104"
     class="area"
     fill="#fff"
     d="m 214.01367,5 c -1.99647,4.263e-4 -3.18719,2.2253337 -2.08008,3.8867188 l 28.50977,42.7636722 3.7168,5.576171 C 244.70802,58.048344 244.99993,59.012338 245,60 v 20 c -0.002,3.924511 -3.72544,6.225692 -7.23633,4.470703 L 224.5957,77.886719 c -4.29832,-2.149417 -8.8584,2.410663 -6.70898,6.708984 l 6.58398,13.167969 C 224.81812,98.458189 224.99988,99.223436 225,100 v 15.85742 c 2.5e-4,1.326 0.52716,2.5976 1.46484,3.53516 l 17.07032,17.07226 c 0.54902,0.54894 0.9614,1.21859 1.20703,1.95508 l 17.7207,53.16211 c 0.68109,2.04151 2.59201,3.41825 4.74414,3.41797 H 270 c 2.76131,-2.8e-4 4.99972,-2.23869 5,-5 v -11 -39 c 10e-5,-0.53747 0.0878,-1.07021 0.25781,-1.58008 l 20,-59.999998 C 295.94458,76.359985 297.8286,75.000278 300,75 h 27.19141 c 3.25311,1.69e-4 5.64029,-3.05684 4.85156,-6.212891 l -15,-59.9999996 C 316.48619,6.5611555 314.48594,4.9997659 312.19141,5 h -46.01172 c -1.89396,-1.307e-4 -3.62545,1.0697661 -4.47266,2.7636719 L 244.4707,42.236328 c -0.47074,0.941263 -1.22558,1.708209 -2.1582,2.195313 -0.004,0.0022 -0.008,0.0056 -0.0117,0.0078 -2.32231,1.191631 -5.44031,0.463363 -6.77344,-2.203125 L 217.60156,6.3808594 C 217.17768,5.5342859 216.31199,4.9997496 215.36523,5 Z" />
  <path
     id="sb105"
     class="sea2"
     fill="#aaccff"
     d="m 400,120 v 40 l -20,40 v 20 h -40 l -60,-20 v -60 l 20,-60 h 40 z" />
  <path
     id="sa105"
     class="area"
     fill="#fff"
     d="m 307.21,85 a 5.0005,5.0005 0 0 0 -4.7441,3.418 l -17.207,51.623 a 5.0005,5.0005 0 0 0 -0.25586,1.582 v 51.17 a 5.0005,5.0005 0 0 0 3.418,4.7441 l 51.623,17.207 a 5.0005,5.0005 0 0 0 1.582,0.25586 h 28.377 a 5.0005,5.0005 0 0 0 5,-5 v -10 c 1.2e-4,-0.77656 0.18188,-1.5418 0.5293,-2.2363 l 18.943,-37.889 a 5.0005,5.0005 0 0 0 0.52734,-2.2363 v -32.287 a 5.0005,5.0005 0 0 0 -2.2266,-4.1602 l -53.027,-35.352 a 5.0005,5.0005 0 0 0 -2.7734,-0.83984 z" />
  <path
     id="sb106"
     class="sea3"
     fill="#80b3ff"
     d="M 100,140 H 0 v 20 l 60,40 h 20 v 40 l 20,20 20,-20 -20,-40 40,-20 z" />
  <path
     id="sa106"
     class="area"
     fill="#fff"
     d="m 10,145 a 5.0005,5.0005 0 0 0 -5,5 v 4.6484 a 5.0005,5.0005 0 0 0 2.2266,4.1602 l 53.027,35.352 a 5.0005,5.0005 0 0 0 2.7734,0.83984 H 80 c 2.8208,2.8e-4 4.9997,2.1792 5,5 a 5.0005,5.0005 0 0 0 0.002,0.0469 5.0005,5.0005 0 0 0 -0.002,0.0508 v 35.76 a 5.0005,5.0005 0 0 0 1.4648,3.5352 l 10,10.002 a 5.0005,5.0005 0 0 0 7.0703,0 l 7.832,-7.834 a 5.0005,5.0005 0 0 0 0.9375,-5.7715 l -16.775,-33.553 a 5.0005,5.0005 0 0 0 -0.002,-0.002 c -0.34002,-0.67964 -0.51968,-1.4274 -0.5273,-2.1874 a 5.0005,5.0005 0 0 0 0,-0.0176 5.0005,5.0005 0 0 0 0,-0.0293 c 2.42e-4,-1.9043 1.0605,-3.6188 2.7637,-4.4707 l 27.592,-13.797 a 5.0005,5.0005 0 0 0 1.2988,-8.0078 l -27.26,-27.26 a 5.0005,5.0005 0 0 0 -3.5352,-1.4648 z" />
  <path
     id="sb111"
     class="sea3"
     fill="#80b3ff"
     d="m 530,260 h 50 l 20,40 v 20 h -50 z" />
  <path
     id="sa111"
     class="area"
     fill="#fff"
     d="m 543.87,265 c -3.41334,-1.9e-4 -5.82363,3.34387 -4.7441,6.582 l 13.334,40 c 0.68108,2.04151 2.59197,3.41826 4.7441,3.418 h 32.793 c 2.76131,-2.8e-4 4.99972,-2.23869 5,-5 v -7.6387 c 1.8e-4,-0.77626 -0.18037,-1.5419 -0.52734,-2.2363 l -16.18,-32.361 c -0.84721,-1.69393 -2.57872,-2.76384 -4.4727,-2.7637 z" />
  <path
     id="sb112"
     class="sea4"
     fill="#5599ff"
     d="m 680,300 -40,20 h -40 v -20 l -20,-40 v -10 l 40,-10 20,10 v 30 z" />
  <path
     id="sa112"
     class="area"
     fill="#fff"
     d="m 618.89844,245.59766 a 5.0005,5.0005 0 0 0 -1.27539,0.14843 l -28.75977,7.19141 a 5.0005,5.0005 0 0 0 -3.25976,7.08789 l 18.86718,37.73828 c 0.34742,0.69452 0.52918,1.45977 0.5293,2.23633 v 10 a 5.0005,5.0005 0 0 0 5,5 h 27.63867 a 5.0005,5.0005 0 0 0 2.23633,-0.52734 l 20.00195,-10 a 5.0005,5.0005 0 0 0 0,-8.94532 L 637.76367,284.4707 C 636.06048,283.61885 635.00024,281.90434 635,280 v -23.82031 a 5.0005,5.0005 0 0 0 -2.76367,-4.47266 L 621.07227,246.125 a 5.0005,5.0005 0 0 0 -2.17383,-0.52734 z" />
  <path
     id="sb113"
     class="sea2"
     fill="#aaccff"
     d="m 550,320 h 50 l 40,40 v 60 h -70 l 20,-60 z" />
  <path
     id="sa113"
     class="area"
     fill="#fff"
     d="m 574.14,325 c -4.45326,0.002 -6.68307,5.38522 -3.5352,8.5352 l 22.93,22.93 c 1.3465,1.3467 1.809,3.3104 1.207,5.1172 l -15.613,46.836 c -1.07953,3.23813 1.33076,6.58219 4.7441,6.582 h 46.127 c 2.76131,-2.8e-4 4.99972,-2.23869 5,-5 v -45.857 c -2.3e-4,-1.326 -0.52712,-2.59762 -1.4648,-3.5352 l -34.143,-34.143 c -0.93758,-0.93768 -2.2092,-1.46457 -3.5352,-1.4648 z" />
  <path
     id="sb114"
     class="sea1"
     fill="#d5e5ff"
     d="m 740,360 v -40 l -60,-20 -40,20 h -40 l 40,40 v 40 h 60 v -40 z" />
  <path
     id="sa114"
     class="area"
     fill="#fff"
     d="m 680.68,305.8 a 5.0005,5.0005 0 0 0 -2.1523,0.52734 l -36.295,18.146 c -0.69452,0.34742 -1.4598,0.52918 -2.2363,0.5293 h -15.859 a 5.0005,5.0005 0 0 0 -3.5352,8.5352 l 22.93,22.93 c 0.93913,0.93901 1.4646,2.2071 1.4648,3.5352 v 30 a 5.0005,5.0005 0 0 0 5,5 h 40 a 5.0005,5.0005 0 0 0 5,-5 v -30 c 2.8e-4,-2.8208 2.1792,-4.9997 5,-5 h 30 a 5.0005,5.0005 0 0 0 5,-5 v -22.793 a 5.0005,5.0005 0 0 0 -3.418,-4.7441 l -49.232,-16.41 a 5.0005,5.0005 0 0 0 -1.666,-0.25585 z" />
  <path
     id="sb121"
     class="sea2"
     fill="#aaccff"
     d="m 980,20 v 20 l -20,20 v 60 h 40 v 20 h -20 v 20 H 960 L 940,140 V 120 L 920,80 Z" />
  <path
     id="sa121"
     class="area"
     fill="#fff"
     d="m 972.92969,34.898438 c -0.50593,0.01822 -0.98612,0.227609 -1.34375,0.585937 l -25.1211,25.123047 -17.83203,17.832031 c -1.52191,1.521644 -1.89953,3.84636 -0.9375,5.771485 l 16.77539,33.552732 c 0.34742,0.69452 0.52918,1.45977 0.5293,2.23633 v 15.85742 c 2.5e-4,1.326 0.52716,2.5976 1.46484,3.53516 l 14.14258,14.14258 c 0.93756,0.93768 2.20916,1.46459 3.53516,1.46484 H 970 c 2.76131,-2.8e-4 4.99972,-2.23869 5,-5 v -10 c 2.8e-4,-2.82077 2.17923,-4.99972 5,-5 2.73385,-0.0387 4.92979,-2.26588 4.92979,-5 0,-2.73412 -2.19594,-4.96134 -4.92979,-5 h -20 c -2.82077,-2.8e-4 -4.99972,-2.17923 -5,-5 V 64.142578 60.019531 60 c 2.5e-4,-1.325341 0.52762,-2.598053 1.46484,-3.535156 L 974.41406,38.515625 C 974.78913,38.140602 974.9999,37.63196 975,37.101562 v -0.203124 c 2.2e-4,-1.085735 -0.86576,-1.973386 -1.95117,-2 -0.0397,-0.0012 -0.0794,-0.0012 -0.11914,0 z" />
  <path
     id="sb122"
     class="sea2"
     fill="#aaccff"
     d="m 680,300 -40,-20 v -30 l 10,-20 30,-10 20,-60 -20,-20 40,-20 20,20 -20,20 20,20 v 20 l 20,20 h -20 v 40 z" />
  <path
     id="sa122"
     class="area"
     fill="#fff"
     d="m 718.00195,127.16797 a 5.0005,5.0005 0 0 0 -2.21289,0.52734 l -21.14453,10.57227 a 5.0005,5.0005 0 0 0 -1.29883,8.00781 l 10.18946,10.18945 c 1.34651,1.3467 1.80897,3.31044 1.20703,5.11719 l -20,59.99805 c -0.49919,1.49718 -1.66493,2.66292 -3.16211,3.16211 l -26.07031,8.6914 a 5.0005,5.0005 0 0 0 -2.89063,2.50782 l -7.0918,14.18359 A 5.0005,5.0005 0 0 0 645,252.36133 v 21.45898 a 5.0005,5.0005 0 0 0 2.76367,4.47266 l 29.28125,14.64062 a 5.0005,5.0005 0 0 0 5.00977,-0.3125 l 50.71875,-33.8125 A 5.0005,5.0005 0 0 0 735,254.64844 V 220 c 1.6e-4,-2.10197 1.27954,-3.94653 3.24805,-4.68359 a 5.0005,5.0005 0 0 0 1.78125,-8.2168 l -3.56446,-3.56445 C 735.52571,202.59615 735.00026,201.32805 735,200 v -15.85742 a 5.0005,5.0005 0 0 0 -1.46484,-3.53516 L 716.4668,163.53516 c -1.99385,-1.99468 -1.99385,-5.07564 0,-7.07032 l 12.92773,-12.92968 a 5.0005,5.0005 0 0 0 0,-7.07032 l -7.83398,-7.83203 a 5.0005,5.0005 0 0 0 -3.5586,-1.46484 z" />
  <path
     id="sb123"
     class="sea2"
     fill="#aaccff"
     d="m 760,140 h 60 l 20,20 v 20 l 20,40 -40,20 h -20 l -20,-20 -20,-40 v -20 h -20 z" />
  <path
     id="sa123"
     class="area"
     fill="#fff"
     d="m 764.14,145 a 5.0005,5.0005 0 0 0 -3.5352,1.4648 l -0.63477,0.63477 a 5.0005,5.0005 0 0 0 1.7812,8.2168 c 1.9685,0.73706 3.2479,2.5816 3.248,4.6836 v 17.639 a 5.0005,5.0005 0 0 0 0.52734,2.2363 l 18.219,36.438 a 5.0005,5.0005 0 0 0 0.9375,1.2988 l 15.924,15.924 a 5.0005,5.0005 0 0 0 3.5352,1.4648 h 13.496 a 5.0005,5.0005 0 0 0 2.2363,-0.52734 l 28.945,-14.473 a 5.0005,5.0005 0 0 0 2.2363,-6.709 l -15.527,-31.055 c -0.34742,-0.69452 -0.52918,-1.4598 -0.5293,-2.2363 v -15.857 a 5.0005,5.0005 0 0 0 -1.4648,-3.5352 l -14.143,-14.143 a 5.0005,5.0005 0 0 0 -3.5352,-1.4648 z" />
  <path
     id="sb124"
     class="sea3"
     fill="#80b3ff"
     d="m 880,140 -40,20 v 20 l 20,-20 20,20 z m 0,40 -20,20 40,20 60,-20 v -40 l -20,-20 h -20 v 40 l -20,20 z" />
  <path
     id="sa124"
     class="area"
     fill="#fff"
     d="M 930 145 C 927.23869 145.00028 925.00028 147.23869 925 150 L 925 180 C 924.99974 181.32805 924.47429 182.59615 923.53516 183.53516 L 903.53516 203.53516 L 903.52344 203.54688 C 901.56985 205.4869 898.41355 205.48302 896.46484 203.53516 L 892.89258 199.96289 L 883.53516 190.60547 C 882.59234 189.66251 881.31196 189.13518 879.97852 189.14062 C 878.65997 189.14663 877.39713 189.67303 876.46484 190.60547 L 873.3457 193.72461 C 870.93277 196.13779 871.59256 200.20562 874.64453 201.73242 L 899.45508 214.13867 L 899.54883 214.18359 L 901.36523 214.27344 L 951.58008 197.53711 C 953.62246 196.85724 955 194.94562 955 192.79297 L 955 164.14258 C 954.99975 162.81658 954.47284 161.54498 953.53516 160.60742 L 939.39258 146.46484 C 938.45502 145.52716 937.18342 145.00025 935.85742 145 L 930 145 z M 872.4375 149.63477 C 872.07019 149.64377 871.70942 149.73397 871.38086 149.89844 L 864.875 153.15234 C 863.34933 153.91613 863.01995 155.94996 864.22656 157.15625 L 870.73242 163.66211 C 872.30741 165.236 874.99913 164.12113 875 161.89453 L 875 152.13477 C 875.0003 150.72934 873.8425 149.59978 872.4375 149.63477 z" />
  <path
     id="sb125"
     class="sea3"
     fill="#80b3ff"
     d="m 820,240 h -20 l -20,20 h -40 l -60,40 60,20 v 40 h 20 v -40 l -20,-20 v -20 h 40 z" />
  <path
     id="sa125"
     class="area"
     fill="#fff"
     d="m 802.89844,245 c -0.5304,1e-4 -1.03904,0.21087 -1.41406,0.58594 l -17.94922,17.94922 C 782.59806,264.47238 781.32534,264.99975 780,265 h -36.97266 c -0.98711,7e-5 -1.95211,0.29229 -2.77343,0.83984 -13.48961,8.9928 -26.97969,17.9849 -40.46875,26.97852 -0.0183,0.0122 -0.0365,0.0246 -0.0547,0.0371 -3.33528,2.28712 -2.71712,7.3816 1.06836,8.80469 l 0.043,0.0156 40.74023,13.58008 c 2.04149,0.68112 3.41825,2.59201 3.41797,4.74414 v 30 c 2.8e-4,2.76131 2.23869,4.99972 5,5 2.76131,-2.8e-4 4.99972,-2.23869 5,-5 v -25.85742 c -2.5e-4,-1.326 -0.52716,-2.5976 -1.46484,-3.53516 L 736.46484,303.53516 C 735.52728,302.59749 735.00025,301.326 735,300 v -20 c 2.8e-4,-2.76131 2.23869,-4.99972 5,-5 h 37.10156 c 0.5304,-10e-5 1.03904,-0.21087 1.41406,-0.58594 l 26,-26 c 1.25911,-1.25999 0.36721,-3.41336 -1.41406,-3.41406 z" />
  <path
     id="sb131"
     class="sea1"
     fill="#d5e5ff"
     d="m 550,100 -40,60 40,20 20,-60 z" />
  <path
     id="sa131"
     class="area"
     fill="#fff"
     d="M 551.5332 110.69531 A 5.0005 5.0005 0 0 0 547.39453 112.92188 L 520.44336 153.34766 A 5.0005 5.0005 0 0 0 522.36719 160.59375 L 541.92383 170.37305 A 5.0005 5.0005 0 0 0 548.9043 167.48047 L 563.30273 124.28125 A 5.0005 5.0005 0 0 0 562.09375 119.16602 L 555.08984 112.16016 A 5.0005 5.0005 0 0 0 551.5332 110.69531 z" />
  <path
     id="sb132"
     class="sea3"
     fill="#80b3ff"
     d="m 680,140 -40,20 -20,20 -40,20 v 50 l 40,-10 20,10 10,-20 30,-10 20,-60 z" />
  <path
     id="sa132"
     class="area"
     fill="#fff"
     d="m 678.00391,147.16602 a 5.0005,5.0005 0 0 0 -2.21485,0.52734 l -32.10156,16.05273 a 5.0005,5.0005 0 0 0 -1.29883,0.9375 l -18.85351,18.85157 c -0.37988,0.37997 -0.81833,0.69708 -1.29883,0.9375 v -0.002 l -34.47266,17.23633 A 5.0005,5.0005 0 0 0 585,206.17969 v 31.01172 a 5.0005,5.0005 0 0 0 6.21289,4.85156 l 27.57422,-6.89258 c 1.15934,-0.28976 2.38042,-0.15562 3.44922,0.37891 l 11.05469,5.52734 A 5.0005,5.0005 0 0 0 640,238.82031 l 5.5293,-11.05664 c 0.59402,-1.18761 1.6309,-2.08585 2.89062,-2.50586 l 25.25586,-8.41992 a 5.0005,5.0005 0 0 0 3.16211,-3.16211 l 16.46484,-49.39258 a 5.0005,5.0005 0 0 0 -1.20898,-5.11718 l -10.5332,-10.53516 a 5.0005,5.0005 0 0 0 -3.55664,-1.46484 z" />
  <path
     id="sb133"
     class="sea2"
     fill="#aaccff"
     d="m 490,240 v -60 l 20,-20 40,20 -20,20 v 60 z" />
  <path
     id="sa133"
     class="area"
     fill="#fff"
     d="m 512.04,167.17 a 5.0005,5.0005 0 0 0 -3.5977,1.4648 l -11.975,11.975 a 5.0005,5.0005 0 0 0 -1.4648,3.5352 v 49.678 a 5.0005,5.0005 0 0 0 2.7637,4.4727 l 20,10 a 5.0005,5.0005 0 0 0 7.2363,-4.4727 v -43.82 c 2.6e-4,-1.328 0.52571,-2.5962 1.4648,-3.5352 l 10.189,-10.189 a 5.0005,5.0005 0 0 0 -1.2988,-8.0078 l -21.145,-10.572 a 5.0005,5.0005 0 0 0 -2.1738,-0.52734 z" />
  <path
     id="sb134"
     class="sea2"
     fill="#aaccff"
     d="m 570,120 -20,60 30,20 40,-20 20,-20 -20,-20 -30,-20 z" />
  <path
     id="sa134"
     class="area"
     fill="#fff"
     d="M 577.20703 125 A 5.0005 5.0005 0 0 0 572.46289 128.41797 L 557.1582 174.33398 A 5.0005 5.0005 0 0 0 559.12891 180.07617 L 577.94531 192.62109 A 5.0005 5.0005 0 0 0 582.95508 192.93359 L 616.3125 176.25391 A 5.0005 5.0005 0 0 0 617.61133 175.31641 L 629.39453 163.53516 A 5.0005 5.0005 0 0 0 629.39453 156.46484 L 617.16406 144.23633 A 5.0005 5.0005 0 0 0 616.40234 143.61133 L 589.74609 125.83984 A 5.0005 5.0005 0 0 0 586.97266 125 L 577.20703 125 z" />
  <path
     id="sb135"
     class="sea1"
     fill="#d5e5ff"
     d="m 550,180 30,20 v 60 h -50 v -60 z" />
  <path
     class="area"
     fill="#fff"
     d="M 551.20508 187.86719 A 5.0005 5.0005 0 0 0 547.73828 189.33203 L 536.46484 200.60742 A 5.0005 5.0005 0 0 0 535 204.14258 L 535 250 A 5.0005 5.0005 0 0 0 540 255 L 570 255 A 5.0005 5.0005 0 0 0 575 250 L 575 205.35156 A 5.0005 5.0005 0 0 0 572.77344 201.19141 L 554.04688 188.70703 A 5.0005 5.0005 0 0 0 551.20508 187.86719 z "
     id="sa135" />
  <path
     id="sb141"
     class="sea3"
     fill="#80b3ff"
     d="M 600,20 V 0 h 100 v 20 l -40,40 -70,60 H 570 L 550,100 570,80 V 50 l 10,-10 20,20 h 40 L 660,40 V 20 L 640,0 Z" />
  <path
     id="sa141"
     class="area"
     fill="#fff"
     d="m 606.25,5 c -0.69033,6.9e-5 -1.24993,0.5596727 -1.25,1.25 v 3.6386719 c 9.4e-4,0.9284721 0.97791,1.5319621 1.80859,1.1171871 l 7.27539,-3.6386715 C 615.26029,6.7761934 614.84181,5.0027787 613.52539,5 Z m 57.89062,0 c -4.45318,0.00175 -6.68293,5.385185 -3.53515,8.535156 l 2.92969,2.929688 C 664.47429,17.403853 664.99974,18.671953 665,20 V 35.859375 40 c -2.5e-4,1.325994 -0.52716,2.597597 -1.46484,3.535156 l -20,20 C 642.5976,64.472838 641.326,64.999746 640,65 h -40 c -1.32805,-2.56e-4 -2.59615,-0.525712 -3.53516,-1.464844 L 583.53516,50.607422 c -0.9433,-0.943446 -2.22449,-1.470829 -3.5586,-1.464844 -2.75215,0.01318 -4.97632,2.247817 -4.97656,5 V 80 c -2.6e-4,1.328047 -0.52571,2.596147 -1.46484,3.535156 l -12.92969,12.929688 c -1.95184,1.95265 -1.95184,5.117666 0,7.070316 l 10.00195,10 c 0.93756,0.93768 2.20916,1.46459 3.53516,1.46484 h 12.1582 c 0.56476,-8e-5 1.12542,-0.0958 1.6582,-0.2832 l 0.19141,0.2832 1.2832,-1.10156 c 0.0302,-0.0244 0.0602,-0.0491 0.0899,-0.0742 l 0.0312,-0.0273 67.04492,-57.468755 16.84961,-16.849609 0.0859,-0.08398 20,-20.001953 C 694.47284,18.455019 694.99975,17.183416 695,15.857422 V 10 c -2.8e-4,-2.7613094 -2.23869,-4.9997239 -5,-5 z" />
  <path
     id="sb142"
     class="sea2"
     fill="#aaccff"
     d="m 700,0 v 20 l -40,40 20,20 H 780 L 800,0 Z" />
  <path
     id="sa142"
     class="area"
     fill="#fff"
     d="m 710,5 a 5.0005,5.0005 0 0 0 -5,5 v 10 c -2.6e-4,1.328 -0.52571,2.5961 -1.4648,3.5352 l -32.93,32.93 a 5.0005,5.0005 0 0 0 0,7.0703 l 10.002,10 a 5.0005,5.0005 0 0 0 3.5352,1.4648 h 88.049 a 5.0005,5.0005 0 0 0 4.8516,-3.7871 l 15,-60 a 5.0005,5.0005 0 0 0 -4.8516,-6.2129 z" />
  <path
     id="sb143"
     class="sea1"
     fill="#d5e5ff"
     d="m 780,80 -60,40 -40,20 -40,20 -20,-20 -30,-20 70,-60 20,20 z" />
  <path
     id="sa143"
     class="area"
     fill="#fff"
     d="M 659.45508 68.619141 A 5.0005 5.0005 0 0 0 656.22266 69.822266 L 603.27539 115.20508 A 5.0005 5.0005 0 0 0 603.75586 123.16211 L 622.77344 135.83984 C 623.04646 136.02225 623.30112 136.23061 623.5332 136.46289 A 5.0005 5.0005 0 0 0 623.53516 136.46484 L 638.43945 151.36719 A 5.0005 5.0005 0 0 0 644.21094 152.30469 L 677.76367 135.5293 L 717.20703 115.80664 A 5.0005 5.0005 0 0 0 717.74414 115.49414 L 749.74609 94.160156 A 5.0005 5.0005 0 0 0 746.97266 85 L 680 85 C 678.67195 84.999744 677.40385 84.474288 676.46484 83.535156 L 663.01172 70.083984 A 5.0005 5.0005 0 0 0 659.45508 68.619141 z" />
  <path
     id="sb144"
     class="sea3"
     fill="#80b3ff"
     d="m 740,140 h 80 V 80 L 900,0 H 800 l -20,80 -60,40 z" />
  <path
     id="sa144"
     class="area"
     fill="#fff"
     d="m 807.81,5 a 5.0005,5.0005 0 0 0 -4.8516,3.7871 l -18.107,72.426 c -0.30214,1.208 -1.0401,2.2565 -2.0762,2.9473 l -49.852,33.234 a 5.0005,5.0005 0 0 0 -0.76172,7.6953 l 8.4453,8.4453 a 5.0005,5.0005 0 0 0 3.5352,1.4648 h 65.859 a 5.0005,5.0005 0 0 0 5,-5 v -50 c 2.6e-4,-1.328 0.52571,-2.5961 1.4648,-3.5352 l 62.93,-62.93 a 5.0005,5.0005 0 0 0 -3.5352,-8.5352 z" />
  <g
     id="g148"
     style="display:none">
    <path
       id="path140"
       d="m60 0v20l40 40h-20l-20-20v20h-20v-40l-40 60v80l60 40h20v40l20 20 20-20-20-40 40-20-40-40 20-20v-40h40l20 20 20 60 20-40 20 20 20 60 40 40v40h20v20h-20v40l20 20v20l40 20h80l20-20v-40l20-20v-140l20-20 40-60 20-20v-20l20-20v-40h-100l-40 20-20 40v60h-20l-60-40-20-80h-60l-20 40-20-40h-20l40 60v20l-40-20 20 40-40-20-20-40h-40v-20h20v-20zm520 0 20 20v-20z"
       fill="#999" />
    <path
       id="path142"
       d="m600 0v20l40-20 20 20v20l-20 20h-40l-20-20-20 20v20l-20 20-40 60-20 20v60l40 20 20 60 40 40-20 60h80v-20h60v-40h60v-40l-20-20v-20h40l40-40 40-20-20-40 20-20 20 20v-40l-40 20-20-20v-60l80-80zm280 180-20 20 40 20 60-20v-40h20v-20h20v-20h-40v-60l20-20v-20l-60 60 20 60h-20v40l-20 20zm-140-40h20l-20 20h20v20l20 40 20 20-20 20h-40v-40h20l-20-20v-20l-20-20z"
       fill="#4d4d4d" />
    <path
       id="path144"
       d="m900 320-20 20 40 40v20l-20 20v20l-20-20 20-20v-20l-40-40-60 20-20 60-60 20 140-20 20 40 60 40 20-20h40v-40h-40l-20-40v-40zm-180 120-20-20v-20h-60v20h-80l-40 20-20 60h-60l-40-20v160l20 60h200v-60l40-120 40-20v-40z"
       fill="#999" />
    <path
       id="path146"
       d="m280 260-20 20-40-20-40 40 40-20v40h40v20h-20l-20 20v-20h-20l-20 20v20h-20l20 20-20 20-10-20-30 60-20 20v60h-20v-40h-80v100l20-20h20l-20 40h40l20 20-20 40h60l40-20 60 20h40l20 20h140l-20-60v-160l-40-20 60-60h-60l-40-20v-20l-20-20v-40h-20zm-120 340h40v20h-40z"
       fill="#4d4d4d" />
  </g>
  <path
     class="ground"
     fill="#008000"
     d="M 0,0 V 80 L 40,20 V 60 H 60 V 40 l 20,20 h 20 L 60,20 V 0 Z m 140,0 v 20 h -20 v 20 h 40 l 20,40 40,20 -20,-40 40,20 V 60 L 200,0 Z m 80,0 20,40 20,-40 z m 100,0 20,80 60,40 h 20 V 60 L 440,20 480,0 Z m 260,0 v 40 l 20,20 h 40 L 660,40 V 20 L 640,0 600,20 Z m 320,0 -80,80 v 60 l 20,20 40,-20 v 40 l 20,20 20,-20 v -40 h 20 V 120 L 920,80 980,20 v 20 l -20,20 v 60 h 40 V 0 Z m -20,180 -20,-20 -20,20 20,40 -18.857,9.4277 -21.143,10.572 -40,40 h -40 v 20 l 20,20 v 40 h -60 v 60 l 20,20 60,-20 20,-60 60,-20 40,40 v 20 l -20,20 20,20 v -20 l 20,-20 v -20 l -40,-40 20,-20 40,40 v 40 l 20,40 h 40 v -40 h -20 v -20 h 20 v -240 h -20 v 20 h -20 v 40 l -60,20 -40,-20 z m -160,260 -20,20 v 40 l -40,20 -40,120 v 60 h 380 V 480 l -40,-20 -20,40 -60,-40 -20,-40 z M 120,80 v 40 l -20,20 40,40 -40,20 20,40 -20,20 -20,-20 V 200 H 60 L 0,160 v 340 h 80 v 40 h 20 v -60 l 20,-20 40,-80 h 20 v -20 l 20,-20 h 20 v 20 l 20,-20 h 20 v -20 h -40 v -40 l -40,20 40,-40 40,20 20,-20 v 40 h 40 v -20 h -20 v -40 l -40,-40 -20,-60 -20,-20 -20,40 -20,-60 -20,-20 z m 620,60 -20,20 20,20 v 20 l 20,20 h -20 v 40 h 40 l 20,-20 -20,-20 -20,-40 v -20 h -20 l 20,-20 z m -20,60 -20,20 v 40 l 20,-20 z m 120,180 v 20 h 20 V 380 Z M 80,560 60,580 h 40 l 20,20 h 20 V 580 L 100,560 Z M 20,580 0,600 v 100 h 280 l -20,-20 h -40 l -60,-20 -40,20 H 60 L 80,640 60,620 H 20 l 20,-40 z m 140,20 v 20 h 40 v -20 z"
     id="path150" />
  <path
     style="fill:#9a2600;fill-opacity:1"
     class="crimsonaxis"
     fill="#ff5555"
     d="m 620,680 -20,-20 20,-20 20,20 z"
     id="path152" />
  <path
     style="fill:#9a2600;fill-opacity:1"
     class="crimsonaxis"
     fill="#ff5555"
     d="m 920,420 -20,-20 20,-20 20,20 z"
     id="path154" />
  <path
     style="fill:#9a2600;fill-opacity:1"
     class="crimsonaxis"
     fill="#ff5555"
     d="m 740,300 -20,-20 20,-20 20,20 z"
     id="path156" />
  <path
     style="fill:#9a2600;fill-opacity:1"
     class="crimsonaxis"
     fill="#ff5555"
     d="m 880,220 -20,-20 20,-20 20,20 z"
     id="path158" />
  <path
     id="path2350"
     d="m 740,295 -15,-15 15,-15 15,15 z"
     fill="#ff5555"
     class="crimsonaxis front" />
  <path
     class="crimsonaxis front"
     fill="#ff5555"
     d="m 880,215 -15,-15 15,-15 15,15 z"
     id="path2358" />
  <path
     id="path2360"
     d="m 920,415 -15,-15 15,-15 15,15 z"
     fill="#ff5555"
     class="crimsonaxis front" />
  <path
     class="crimsonaxis front"
     fill="#ff5555"
     d="m 620,675 -15,-15 15,-15 15,15 z"
     id="path2362" />
  <path
     style="fill:#007cf4;fill-opacity:1"
     class="azurlane"
     fill="#2ad4ff"
     d="m 160,380 20,20 -20,20 -20,-20 z"
     id="path160" />
  <path
     style="fill:#007cf4;fill-opacity:1"
     class="azurlane"
     fill="#2ad4ff"
     d="m 720,460 -20,-20 20,-20 20,20 z"
     id="path162" />
  <path
     style="fill:#007cf4;fill-opacity:1"
     class="azurlane"
     fill="#2ad4ff"
     d="m 740,240 -20,-20 20,-20 20,20 z"
     id="path164" />
  <path
     style="fill:#007cf4;fill-opacity:1"
     class="azurlane"
     fill="#2ad4ff"
     d="m 980,160 -20,-20 20,-20 20,20 z"
     id="path166" />
  <path
     id="path2348"
     d="m 160,385 15,15 -15,15 -15,-15 z"
     fill="#2ad4ff"
     class="azurlane front" />
  <path
     class="azurlane front"
     fill="#2ad4ff"
     d="m 740,205 15,15 -15,15 -15,-15 z"
     id="path2352" />
  <path
     id="path2354"
     d="m 720,425 15,15 -15,15 -15,-15 z"
     fill="#2ad4ff"
     class="azurlane front" />
  <path
     id="path2356"
     d="m 980,125 15,15 -15,15 -15,-15 z"
     fill="#2ad4ff"
     class="azurlane front" />
  <path
     d="M 420,700 400,640 V 580 475 l -30,-15 50,-50 h -20 l -20,-10 -40,-20 v -20 l -40,-30 v -30"
     style="fill:none;stroke:#000000;stroke-width:5;stroke-miterlimit:4;stroke-dasharray:none"
     id="path2673" />
  <path
     d="m 420,410 10,-10 h 20 l 20,-20 v -40 l 20,-20 v -20 -60"
     style="fill:none;stroke:#000000;stroke-width:5;stroke-miterlimit:4;stroke-dasharray:none"
     id="path2725" />
  <path
     d="m 570,420 -40,20 -20,60 h -10 -50 l -50,-25"
     style="fill:none;stroke:#000000;stroke-width:5;stroke-miterlimit:4;stroke-dasharray:none"
     id="path2741" />
  <path
     d="M 600,0 V 20 L 640,0 660,20 V 40 L 640,60 H 600 L 580,40 570,50 v 30 l -20,20 -40,60 -20,20 v 60 l 40,20 20,60 40,40 -20,60 h 70 v -20 h 60"
     style="fill:none;stroke:#000000;stroke-width:5;stroke-miterlimit:4;stroke-dasharray:none"
     id="path2857" />
</svg>
