<?xml version="1.0" encoding="UTF-8"?>
<svg id="svg8" width="30" height="30" version="1.1" viewBox="0 0 30 30" xmlns="http://www.w3.org/2000/svg">
 <g stroke-width=".03">
  <path id="path837" d="m15 1.8 4.6554 6.7926 7.8987 2.3284-5.0217 6.5265 0.2264 8.2317-7.7589-2.759-7.7589 2.759 0.2264-8.2317-5.0217-6.5265 7.8987-2.3284z" fill="#b3b3b3"/>
  <path id="path839" d="M 15,15 10.3446,8.5926 15,1.8 19.6554,8.5926 Z"/>
  <path id="path841" d="m15 15 4.6554-6.4074 7.8987 2.3284-5.0217 6.5265z"/>
  <path id="path843" d="m15 15 7.5324 2.4474 0.2264 8.2317-7.7589-2.759z"/>
  <path id="path845" d="m15 15v7.92l-7.7589 2.759 0.2264-8.2317z"/>
  <path id="path847" d="m15 15-7.5324 2.4474-5.0217-6.5265 7.8987-2.3284z"/>
 </g>
 <path id="path849" d="m15 1.8 4.6554 6.7926 7.8987 2.3284-5.0217 6.5265 0.2264 8.2317-7.7589-2.759-7.7589 2.759 0.2264-8.2317-5.0217-6.5265 7.8987-2.3284z" fill="none" stroke="#000" stroke-linecap="round" stroke-linejoin="round" stroke-width="3"/>
</svg>
