<?xml version="1.0" encoding="UTF-8"?>
<svg id="svg8" width="1e3" height="1e3" version="1.1" viewBox="0 0 1e3 1e3" xmlns="http://www.w3.org/2000/svg">
 <path id="path837" d="m500 60 155.18 226.42 263.29 77.613-167.39 217.55 7.5466 274.39-258.63-91.967-258.63 91.967 7.5466-274.39-167.39-217.55 263.29-77.613z" fill="#b3b3b3"/>
 <path id="path839" d="m500 500-155.18-213.58 155.18-226.42 155.18 226.42z"/>
 <path id="path841" d="m500 500 155.18-213.58 263.29 77.613-167.39 217.55z"/>
 <path id="path843" d="m500 500 251.08 81.58 7.5466 274.39-258.63-91.967z"/>
 <path id="path845" d="m500 500 1e-5 264-258.63 91.967 7.5466-274.39z"/>
 <path id="path847" d="m500 500-251.08 81.58-167.39-217.55 263.29-77.613z"/>
 <path id="path849" d="m500 60 155.18 226.42 263.29 77.613-167.39 217.55 7.5466 274.39-258.63-91.967-258.63 91.967 7.5466-274.39-167.39-217.55 263.29-77.613z" fill="none" stroke="#000" stroke-linecap="round" stroke-linejoin="round" stroke-width="100"/>
</svg>
