<?xml version="1.0" encoding="UTF-8"?>
<svg width="100" height="100" version="1.1" viewBox="0 0 100 100" xmlns="http://www.w3.org/2000/svg">
 <rect x="0" y="0" width="100" height="100" fill="#214478"/>
 <path d="m45.799 5.1298-0.33611 0.33611 2.0166 6.0499 2.3527 5.3777 1.0083 5.0416v7.0582l-0.33611 1.6805-3.6972 7.3943-4.0333 4.0333 2.0166 7.7305-1.3444 8.0666-2.6889 4.0333h-4.3694l-4.3694-0.67221-2.3527 3.6972-1.6805 2.6889-2.0166 1.3444-4.7055 4.0333-4.0333 4.0333-3.6972 4.7055-2.0166 5.0416 12.436 4.0333 13.78 2.6889 3.6972 1.3444h5.3777l4.7055-1.3444 6.386-0.3361 2.0166 0.6722 1.3444 0.3361 1.0083-0.3361 1.3444-0.3361 1.0083-1.0083-0.33611-4.0333 1.3444-4.0333 2.0166-1.6805v-2.0166l-1.3444-1.3444-0.33611-3.3611 1.3444-3.025 0.33611-1.6805 3.6972-2.3527 4.0333-1.3444 4.7055-1.0083-0.33611-1.6805 1.0083-3.3611 1.6805-4.0333 0.17068-0.29934 1.1737-2.0534 3.6972-6.386 1.0083-0.67221-1.3444-2.3527-8.0666-6.7221-1.3444-2.6889-1.9103-6.0499-0.10635-0.33611-4.3694-14.789-1.0083-4.3694-0.67221-0.67221-0.67221-1.0083-1.6805-1.0083-2.3527-0.67221h-8.4027l-1.0083-0.67221-1.0083-1.6805z" fill="#f55"/>
</svg>
